<svg width="214" height="42" viewBox="0 0 214 42" fill="none" xmlns="http://www.w3.org/2000/svg">
<path d="M0.138477 8.55H4.98848V37.6H20.9385V41H0.138477V8.55ZM23.615 8.55H45.415V11.95H28.465V22.55H43.765V25.95H28.465V37.6H45.915V41H23.615V8.55ZM50.1189 8.55H54.9689V41H50.1189V8.55ZM123.576 8.55H129.426L147.076 35.35V8.55H151.326V41H145.476L127.826 13.75V41H123.576V8.55ZM166.659 8.55H172.259L184.859 41H179.809L176.109 31.15H162.209L158.559 41H153.759L166.659 8.55ZM174.909 27.8L169.409 13.15H168.959L163.459 27.8H174.909ZM161.359 5.05C161.392 3.51666 161.875 2.4 162.809 1.7C163.775 0.966666 164.959 0.599999 166.359 0.599999C167.025 0.599999 167.742 0.716665 168.509 0.949997C169.275 1.15 169.725 1.26667 169.859 1.3C170.959 1.66666 171.742 1.85 172.209 1.85C173.309 1.85 173.859 1.3 173.859 0.199998L177.109 0.249997C177.075 2.01666 176.625 3.26667 175.759 4C174.925 4.7 173.742 5.05 172.209 5.05C171.909 5.05 171.509 4.98333 171.009 4.85C170.542 4.68333 170.059 4.51666 169.559 4.35C168.992 4.18333 168.409 4.01666 167.809 3.85C167.242 3.68333 166.759 3.6 166.359 3.6C165.192 3.6 164.592 4.08333 164.559 5.05H161.359ZM200.026 41.5C190.959 41.5 186.426 38.5667 186.426 32.7V17.35C186.426 11.15 190.959 8.05 200.026 8.05C209.193 8.05 213.776 11.1333 213.776 17.3V32.7C213.776 35.8333 212.509 38.0833 209.976 39.45C207.443 40.8167 204.126 41.5 200.026 41.5ZM200.126 38.25C206.093 38.25 209.076 36.3833 209.076 32.65V17.2C209.076 13.2 206.076 11.2 200.076 11.2C197.176 11.2 194.943 11.65 193.376 12.55C191.843 13.45 191.076 15 191.076 17.2V32.65C191.076 36.3833 194.093 38.25 200.126 38.25Z" fill="white"/>
<path d="M73.5514 41.5C64.4847 41.5 59.9514 38.5667 59.9514 32.7V17.35C59.9514 11.15 64.4847 8.05 73.5514 8.05C82.718 8.05 87.3014 11.1333 87.3014 17.3V32.7C87.3014 35.8333 86.0347 38.0833 83.5014 39.45C80.968 40.8167 77.6514 41.5 73.5514 41.5ZM73.6514 38.25C79.618 38.25 82.6014 36.3833 82.6014 32.65V17.2C82.6014 13.2 79.6014 11.2 73.6014 11.2C70.7014 11.2 68.468 11.65 66.9014 12.55C65.368 13.45 64.6014 15 64.6014 17.2V32.65C64.6014 36.3833 67.618 38.25 73.6514 38.25ZM104.937 41.5C103.17 41.5 101.62 41.3833 100.287 41.15C98.9869 40.9167 97.7036 40.5167 96.4369 39.95C95.1036 39.35 94.0702 38.4333 93.3369 37.2C92.6369 35.9667 92.2869 34.4667 92.2869 32.7V8.55H96.9369V32.65C96.9369 34.6833 97.6202 36.1333 98.9869 37C100.354 37.8333 102.37 38.25 105.037 38.25C107.704 38.25 109.687 37.8333 110.987 37C112.32 36.1333 112.987 34.6833 112.987 32.65V8.55H117.637V32.7C117.637 38.5667 113.404 41.5 104.937 41.5Z" fill="#C7860A"/>
</svg>
